<svg xmlns="http://www.w3.org/2000/svg" width="23" height="20" xml:space="preserve"><path fill="#19689D" d="M5.445 20h-3.89C.698 20 0 19.239 0 18.307v-7.613C0 9.759.698 9 1.555 9h3.89C6.302 9 7 9.759 7 10.693v7.613C7 19.239 6.302 20 5.445 20zm-3.89-9.309v7.615h3.888l.001-7.613-3.889-.002z"/><path fill="#FF252E" d="M13.444 20H9.556C8.698 20 8 19.208 8 18.235V6.765C8 5.792 8.698 5 9.556 5h3.889C14.302 5 15 5.792 15 6.765v11.471c0 .972-.698 1.764-1.556 1.764zm0-13.235H9.556v11.471h3.89l-.002-11.471z"/><path fill="#19689D" d="M21.444 20h-3.889C16.698 20 16 19.184 16 18.182V1.817C16 .815 16.698 0 17.556 0h3.889C22.302 0 23 .815 23 1.817v16.364C23 19.184 22.302 20 21.444 20zm0-18.183h-3.889v16.364h3.89l-.001-16.364z"/></svg>