<svg xmlns="http://www.w3.org/2000/svg" width="22" height="20" xml:space="preserve"><path fill="#19689D" d="M2.2 5.995c0-2.18 1.651-3.815 3.851-3.815 1.694 0 3.344 1.08 3.927 2.572H11V2.278A6.613 6.613 0 0 0 6.05 0C2.662 0 0 2.638 0 5.995c0 4.12 3.74 7.476 9.405 12.578L11 20v-2.943l-.11-.107C5.654 12.25 2.2 9.145 2.2 5.995z"/><path fill="#FF252E" d="M15.95 0A6.611 6.611 0 0 0 11 2.278V4.752h1.023c.582-1.493 2.232-2.572 3.927-2.572 2.2 0 3.851 1.635 3.851 3.815 0 3.15-3.455 6.255-8.691 10.955l-.11.107V20l1.596-1.428C18.261 13.471 22 10.115 22 5.995 22 2.638 19.338 0 15.95 0z"/></svg>