<svg xmlns="http://www.w3.org/2000/svg" width="49" height="52" xml:space="preserve"><path fill="#FF252E" d="M31.957 39.837H17.031a1.096 1.096 0 0 0 0 2.191h14.926a1.096 1.096 0 0 0 0-2.191zM31.957 43.82H17.031a1.096 1.096 0 0 0 0 2.19h14.926a1.096 1.096 0 1 0 0-2.19zM31.957 31.838H17.031a1.095 1.095 0 0 0 0 2.19h14.926a1.095 1.095 0 1 0 0-2.19zM31.957 35.82H17.031a1.095 1.095 0 0 0 0 2.19h14.926a1.096 1.096 0 0 0 0-2.19zM13.039 16.9H6.066a1.096 1.096 0 0 0 0 2.19h6.973c.604 0 1.096-.491 1.096-1.095s-.492-1.095-1.096-1.095z"/><path fill="#19699C" d="m5.174 11.921-.002-3.427c.064-.101.262-.28.362-.329h2.43V11.921h2.343c-.085-.031-.153-.097-.153-.192V7.07h.001V2.411a.22.22 0 0 1 .221-.22h28.248c.121 0 .222.099.222.22v9.318c0 .095-.068.161-.153.192h2.343V8.165h2.422c.096.043.293.213.367.313v3.443h2.191V8.397c0-1.132-1.332-2.422-2.5-2.422h-2.481V2.411c0-1.33-1.08-2.411-2.41-2.411h-28.25a2.414 2.414 0 0 0-2.411 2.411v3.564H5.483c-1.168 0-2.5 1.29-2.5 2.422v3.524h2.191z"/><path fill="#FF252E" d="M46.912 11H2.086C.79 11-.005 12.4-.005 13.403v17.631c0 1.145.938 2.072 2.091 2.072h7.974a1.096 1.096 0 0 0 0-2.191H2.187V13.403c0-.047.043-.148.068-.212l44.469-.007c.045.069.09.171.09.219v17.514h-7.875a1.094 1.094 0 0 0 0 2.19h7.975c1.152 0 2.09-.928 2.09-2.071V13.403c0-1.003-.795-2.403-2.092-2.403z"/><path fill="#19689D" d="M37.934 25.862H11.055c-.604 0-1.095.491-1.095 1.095v22.501c0 1.392 1.082 2.521 2.412 2.521H36.62c1.33 0 2.409-1.131 2.409-2.521v-22.5c0-.604-.491-1.096-1.095-1.096zM36.619 49.79H12.371c-.104 0-.221-.136-.221-.331V28.053h24.688v21.406c.001.195-.115.331-.219.331z"/></svg>