<svg xmlns="http://www.w3.org/2000/svg" width="44" height="53" xml:space="preserve"><path fill="#FFF" d="M3.086 19.275 1.82 17.332a4.739 4.739 0 0 1 .848-6.122l5.551-4.86c.841-.735 1.953-1.14 3.131-1.14 1.15 0 2.242.388 3.073 1.093l1.771 1.504-1.751 1.528c-.726.635-8.564 7.494-9.61 8.411l-1.747 1.529zM11.35 7.213c-.691 0-1.331.227-1.805.642l-5.55 4.86a2.73 2.73 0 0 0-.489 3.526c1.046-.917 8.887-7.777 9.614-8.414-.468-.396-1.097-.614-1.77-.614z"/><path fill="#FFF" d="M40.911 4.928H17.444L-.005 20.188v29.746a3.073 3.073 0 0 0 3.074 3.063h37.842a3.072 3.072 0 0 0 3.074-3.063V7.99a3.072 3.072 0 0 0-3.074-3.062zm.961 45.006c0 .52-.439.958-.961.958H3.069a.972.972 0 0 1-.961-.958V21.14L18.24 7.033h22.671c.521 0 .961.438.961.957v41.944z"/><path fill-rule="evenodd" clip-rule="evenodd" fill="#FFF" d="M35.433 11.261H20.047c-1.025 0-1.564.471-1.96.816-.144.125-.967.897-2.117 1.976-2.619 2.457-7.005 6.57-8.733 8.083-.486.425-.99.866-.99 1.948l.003 20.285a2.3 2.3 0 0 0 2.303 2.294h26.88a2.3 2.3 0 0 0 2.302-2.294V13.554a2.301 2.301 0 0 0-2.302-2.293zm.292 33.108a.295.295 0 0 1-.292.291H8.553a.295.295 0 0 1-.292-.291l-.005-20.284c0-.116.01-.163.008-.163.034-.049.181-.177.298-.28 1.755-1.537 6.156-5.665 8.785-8.131 1.123-1.053 1.927-1.808 2.066-1.93.308-.27.364-.318.633-.318h15.386c.158 0 .292.133.292.291v30.815z"/><path fill-rule="evenodd" clip-rule="evenodd" fill="#FFF" d="M16.32 32.809c0 3.162 2.583 5.735 5.758 5.735s5.757-2.573 5.757-5.735c0-4.078-5.12-6.901-5.764-11.45-.673 4.581-5.751 7.507-5.751 11.45zm5.809-5.319c.896 1.236 2.707 3.288 3.046 4.756.044.184.067.371.067.563a3.164 3.164 0 0 1-6.328 0c0-1.496 2.191-4.037 3.169-5.378.017.019.03.04.046.059z"/><path fill="#FFF" d="M35.415-.001h-5.551a3.07 3.07 0 0 0-3.073 3.062v3.835h2.112V3.061c0-.52.44-.957.961-.957h5.551c.521 0 .961.438.961.957v3.835h2.112V3.061a3.07 3.07 0 0 0-3.073-3.062z"/></svg>