<svg xmlns="http://www.w3.org/2000/svg" width="49" height="52" xml:space="preserve"><path fill-rule="evenodd" clip-rule="evenodd" fill="#19689D" d="M39 21.999h2V46h-2V21.999M8 21.999h2V46H8V21.999"/><path fill="#19689D" d="M38.432 46.471H10.569C4.741 46.471 0 41.729 0 35.902v-4.805c0-5.827 4.741-10.568 10.569-10.568h27.863C44.259 20.529 49 25.271 49 31.098v4.805c0 5.826-4.741 10.568-10.568 10.568zm-27.863-24.02c-4.768 0-8.647 3.879-8.647 8.646v4.805c0 4.768 3.879 8.646 8.647 8.646h27.863c4.768 0 8.646-3.879 8.646-8.646v-4.805c0-4.768-3.879-8.646-8.646-8.646H10.569zM15.031 18.004h-1.063a1.33 1.33 0 0 1-1.329-1.328l.001-.552c-.058-.141-.63-.607-.97-.784-.068-.035-.394.015-.536.159l-.391.391c-.499.5-1.378.501-1.879 0l-.751-.751a1.323 1.323 0 0 1-.389-.94c0-.355.139-.689.389-.938l.391-.391c.062-.143-.011-.871-.127-1.23-.035-.109-.264-.276-.498-.276H7.33a1.33 1.33 0 0 1-1.329-1.328V8.971A1.33 1.33 0 0 1 7.33 7.642h.551c.143-.059.604-.624.787-.973.05-.096.004-.369-.16-.533l-.391-.391a1.331 1.331 0 0 1 0-1.879l.749-.751c.502-.501 1.382-.501 1.88 0l.385.384c-.002-.01.083.019.285.019.352 0 .775-.083.951-.14.109-.035.276-.264.276-.498v-.551A1.33 1.33 0 0 1 13.971 1h1.063a1.33 1.33 0 0 1 1.328 1.328v.552c.058.144.622.604.971.788.017.009.381-.008.534-.16l.392-.392c.498-.5 1.378-.501 1.878 0l.75.75c.517.52.517 1.362 0 1.879l-.39.39c-.063.144.011.871.127 1.231.035.111.264.277.498.277h.551a1.33 1.33 0 0 1 1.328 1.329v1.062a1.33 1.33 0 0 1-1.328 1.329h-.551c-.145.059-.604.623-.785.972-.045.086-.017.358.158.533l.392.393c.516.518.516 1.36 0 1.878l-.751.751c-.5.5-1.379.5-1.879-.001l-.383-.381c.004.01-.082-.02-.288-.02-.352 0-.774.083-.949.14-.111.035-.278.264-.278.499v.55c0 .731-.595 1.327-1.328 1.327zm-3.468-3.746c.216 0 .423.048.597.138.015.008 1.543.825 1.543 1.728v.552c0 .144.122.265.266.265h1.063a.268.268 0 0 0 .265-.265v-.55c0-.677.437-1.327 1.017-1.511.235-.076.771-.19 1.273-.19.478 0 .815.105 1.033.324l.39.388c.135.136.243.135.376.001l.751-.75a.271.271 0 0 0 0-.376l-.391-.391c-.479-.477-.63-1.241-.35-1.776.007-.014.826-1.543 1.727-1.543h.551a.27.27 0 0 0 .265-.267V8.972a.27.27 0 0 0-.265-.267h-.551c-.677 0-1.326-.436-1.51-1.015-.004-.013-.503-1.673.135-2.308l.389-.389a.27.27 0 0 0-.001-.377l-.75-.75c-.134-.133-.243-.134-.374-.001l-.393.393c-.458.458-1.252.621-1.775.352-.018-.009-1.544-.834-1.544-1.73v-.551a.269.269 0 0 0-.265-.265h-1.063a.268.268 0 0 0-.265.265v.551c0 .676-.437 1.326-1.015 1.511-.238.076-.775.19-1.275.19-.477 0-.813-.106-1.03-.324l-.392-.39c-.137-.138-.244-.133-.376 0l-.749.749a.267.267 0 0 0-.002.377l.391.391c.478.476.63 1.24.351 1.776-.008.017-.833 1.545-1.73 1.545h-.551a.27.27 0 0 0-.265.267v1.063a.27.27 0 0 0 .266.266h.55c.677 0 1.326.436 1.511 1.014.004.015.501 1.674-.134 2.307l-.391.391a.263.263 0 0 0-.077.187c0 .042.01.121.077.188l.751.751c.134.134.243.133.375 0l.392-.392a1.697 1.697 0 0 1 1.179-.489zm2.938-.77a3.99 3.99 0 0 1-3.986-3.985c0-2.198 1.788-3.986 3.986-3.986s3.986 1.789 3.986 3.986a3.99 3.99 0 0 1-3.986 3.985zm0-6.909a2.927 2.927 0 0 0-2.923 2.923c0 1.611 1.311 2.922 2.923 2.922s2.923-1.311 2.923-2.922a2.927 2.927 0 0 0-2.923-2.923z"/><path fill="#19689D" d="M14.5 19C9.262 19 5 14.738 5 9.5 5 4.261 9.262 0 14.5 0S24 4.261 24 9.5c0 5.238-4.262 9.5-9.5 9.5zm0-17.191c-4.241 0-7.69 3.45-7.69 7.69s3.45 7.691 7.69 7.691 7.69-3.45 7.69-7.691-3.449-7.69-7.69-7.69zM29 19c-2.757 0-5-2.243-5-5s2.243-5 5-5 5 2.243 5 5-2.243 5-5 5zm0-8.333A3.337 3.337 0 0 0 25.667 14c0 1.838 1.495 3.333 3.333 3.333s3.333-1.495 3.333-3.333A3.337 3.337 0 0 0 29 10.667zM41 52h-4.819l-1.4-7H41v7zm-3.181-2H39v-3h-1.78l.599 3zM12.82 52H8v-7h6.22l-1.4 7zM10 50h1.18l.6-3H10v3z"/></svg>