<svg xmlns="http://www.w3.org/2000/svg" width="49" height="49" xml:space="preserve"><path fill="#FFF" d="M32.571 16.054c-.413-.415-1.204-.415-1.618 0L15.681 31.328c-.216.216-.335.502-.335.809s.119.594.335.809c.216.217.503.336.809.336.305 0 .592-.119.809-.336l15.273-15.274a1.145 1.145 0 0 0-.001-1.618zM21.463 17.821a4.022 4.022 0 0 0-4.017-4.017 4.022 4.022 0 0 0-4.017 4.017 4.022 4.022 0 0 0 4.017 4.017 4.022 4.022 0 0 0 4.017-4.017zm-4.016-1.728a1.73 1.73 0 1 1-.002 3.458 1.73 1.73 0 0 1 .002-3.458zM32.721 27.162c-2.215 0-4.017 1.803-4.017 4.018s1.802 4.018 4.017 4.018 4.018-1.803 4.018-4.018-1.803-4.018-4.018-4.018zm0 5.746a1.73 1.73 0 0 1 0-3.458 1.729 1.729 0 1 1 0 3.458z"/><path fill="#FFF" d="M24.5 0C10.991 0 0 10.991 0 24.5S10.991 49 24.5 49 49 38.009 49 24.5 38.009 0 24.5 0zm0 46.712c-12.248 0-22.212-9.964-22.212-22.212S12.252 2.288 24.5 2.288 46.712 12.252 46.712 24.5 36.748 46.712 24.5 46.712z"/></svg>