<svg xmlns="http://www.w3.org/2000/svg" width="52" height="51" xml:space="preserve"><path fill="#FFF" d="M19.107 50.605a2.92 2.92 0 0 1-.267-.011l-.007.001-.125-.013c-.945-.113-1.729-.626-2.149-1.408-.376-.7-.634-1.915.277-3.725.662-1.314 2.517-5.436 1.379-8.273-1.153 1.215-2.478 2.48-4.024 3.506-1.564 1.037-2.659 1.48-3.658 1.48-1.412 0-2.401-.887-3.449-1.824-2.566-2.297-4.53-5.139-6.481-8.093-.635-.884-.77-1.968-.339-2.87.307-.642 1.176-1.737 3.549-1.871 1.462-.082 6.056-.531 7.99-2.909-1.662-.399-3.455-.921-5.139-1.751-3.806-1.876-3.911-3.356-3.246-6.285.771-3.396 2.316-6.59 3.872-9.536.526-.991 1.451-1.58 2.475-1.58.672 0 1.985.273 3.221 2.106.812 1.203 3.559 4.946 6.587 5.444-.486-1.605-.929-3.38-1.051-5.214-.279-4.188.968-5.009 3.881-5.884C25.259 1.033 28.307.593 32.594.423a2.65 2.65 0 0 1 .326-.017c1.064 0 1.965.471 2.472 1.293.359.582.811 1.858-.197 3.861-1.401 2.781-1.744 5.598-.99 7.676.987-.998 2.13-2.033 3.446-2.906 1.565-1.038 2.66-1.481 3.658-1.481 1.413 0 2.401.886 3.447 1.824 2.354 2.103 4.618 4.855 6.731 8.177.6.915.691 1.97.256 2.833-.315.624-1.192 1.69-3.527 1.822-2.792.157-6.063 1.046-7.668 3.037 1.497.379 3.111.88 4.629 1.626 3.808 1.877 3.913 3.356 3.247 6.286a35.16 35.16 0 0 1-3.7 9.566c-.518.962-1.439 1.547-2.458 1.547-.672 0-1.984-.273-3.221-2.106-1.854-2.746-4.326-4.55-6.605-4.863.409 1.429.772 3.012.881 4.635.279 4.188-.968 5.01-3.881 5.886-2.977.896-6.92 1.477-10.044 1.477a4.306 4.306 0 0 1-.289.009zm-.233-1.962.084.011c.091.01.187.011.282.002l.155-.003c2.905 0 6.716-.561 9.484-1.395 2.241-.675 2.707-.814 2.501-3.896-.127-1.916-.644-3.756-1.183-5.459l-.359-1.135 1.184-.125c3.388-.365 7.014 1.844 9.636 5.73.535.795 1.122 1.25 1.608 1.25.403 0 .646-.338.754-.539a33.222 33.222 0 0 0 3.508-9.061c.512-2.249.618-2.718-2.21-4.112-1.782-.876-3.697-1.375-5.502-1.784l-1.147-.26.472-1.078c1.307-2.994 5.033-4.948 9.967-5.226.979-.055 1.689-.338 1.901-.757.165-.328-.017-.692-.139-.88-2.039-3.205-4.188-5.82-6.409-7.805-1.008-.903-1.548-1.328-2.151-1.328-.572 0-1.394.367-2.584 1.157-1.596 1.059-2.944 2.42-4.054 3.611l-.837.898-.683-1.02c-1.799-2.687-1.681-6.808.306-10.753.42-.834.524-1.57.279-1.967-.198-.321-.596-.369-.817-.369-.06 0-.121.003-.184.01-4.18.168-7.083.584-9.773 1.396-2.241.674-2.707.814-2.502 3.894.14 2.114.777 4.217 1.363 6.022l.356 1.098-1.143.164c-.271.039-.54.058-.808.058-4.124 0-7.567-4.445-8.857-6.356-.536-.794-1.122-1.249-1.609-1.249-.406 0-.649.342-.757.546-1.491 2.826-2.972 5.88-3.694 9.056-.511 2.249-.617 2.717 2.21 4.111 1.938.955 4.109 1.478 5.993 1.894l1.111.245-.416 1.06a5.04 5.04 0 0 1-.218.481c-1.872 3.67-7.113 4.499-10.071 4.665-.989.057-1.701.344-1.904.77-.173.362.072.77.186.927 1.897 2.875 3.78 5.604 6.177 7.749 1.008.903 1.549 1.328 2.151 1.328.573 0 1.394-.368 2.584-1.156 1.778-1.179 3.283-2.764 4.554-4.156l.766-.84.711.886c2.857 3.563.549 9.141-.575 11.373-.411.816-.521 1.52-.3 1.93.138.254.392.351.603.387z"/><path fill="#FFF" d="M25.984 31.367c-3.309 0-6-2.653-6-5.915s2.691-5.916 6-5.916 6 2.654 6 5.916c0 3.262-2.691 5.915-6 5.915zm0-10.023c-2.312 0-4.193 1.843-4.193 4.109 0 2.265 1.881 4.108 4.193 4.108 2.312 0 4.193-1.843 4.193-4.108.001-2.266-1.881-4.109-4.193-4.109z"/><path fill="#FFF" d="M25.984 36.278c-6.066 0-11-4.85-11-10.81 0-5.96 4.934-10.808 11-10.808 6.064 0 11 4.848 11 10.808 0 5.961-4.935 10.81-11 10.81zm0-19.705c-5.01 0-9.087 3.99-9.087 8.896 0 4.905 4.077 8.897 9.087 8.897s9.087-3.992 9.087-8.897c0-4.906-4.077-8.896-9.087-8.896z"/></svg>