<svg xmlns="http://www.w3.org/2000/svg" width="50" height="50" xml:space="preserve"><g fill="#FFF"><path d="M2.54 50 .264 47.698l4.742-7.566 3.388-2.761.397.405 11.495-11.617-2.652-2.682 4.118-4.162.516.059a3.917 3.917 0 0 0 3.237-1.144 4.04 4.04 0 0 0 1.137-3.293l-.055-.507L40.862 0l8.874 8.97-14.264 14.419-.516-.058a3.903 3.903 0 0 0-3.237 1.144 4.036 4.036 0 0 0-1.138 3.295l.056.506-4.128 4.173-2.652-2.682L12.36 41.385l.401.407-2.714 3.404L2.54 50zm4.092-8.433-3.427 5.467 5.391-3.45 1.307-1.641-.553-.558 14.507-14.661 2.652 2.682 1.909-1.93a6.153 6.153 0 0 1 1.778-4.505c1.183-1.197 2.751-1.832 4.463-1.803L46.727 8.97l-5.864-5.926L28.806 15.23a6.157 6.157 0 0 1-1.779 4.504 6.052 6.052 0 0 1-4.462 1.803l-1.92 1.94 2.651 2.682L8.788 40.823l-.553-.562-1.603 1.306zM41.034 45.951l-2.051-2.074.694-2.617 2.604-.706 2.051 2.074-.695 2.617-2.603.706zm-.602-2.46.994 1.005 1.147-.311.312-1.172-.995-1.006-1.147.312-.311 1.172z"/><path d="m26.509 33.21-2.652-2.682-1.386 1.399 15.363 15.527a5.75 5.75 0 0 0 4.107 1.719 5.75 5.75 0 0 0 4.11-1.72c2.256-2.281 2.256-5.992 0-8.272L31.998 24.979a3.478 3.478 0 0 0-.886 2.09l13.446 13.589a3.795 3.795 0 0 1 .001 5.319c-1.4 1.413-3.832 1.412-5.233.001L28.841 35.381l-.083-.083M15.369 21.765l-.618.203a8.963 8.963 0 0 1-2.81.451 8.903 8.903 0 0 1-6.373-2.669 9.217 9.217 0 0 1-2.633-6.91l4.678 4.728 6.765-1.834 1.807-6.814-4.696-4.746a8.92 8.92 0 0 1 6.833 2.655c2.297 2.322 3.184 5.734 2.315 8.907l-.159.584 2.497 2.524a3.33 3.33 0 0 0 2.052-.911l-2.218-2.241c.804-3.72-.316-7.632-2.995-10.339a10.992 10.992 0 0 0-7.865-3.291c-.984 0-1.966.131-2.914.39L7.3 2.924l6.548 6.618-1.188 4.482-4.414 1.196-6.564-6.633-.473 1.77c-1.034 3.873.064 8.038 2.867 10.87a10.99 10.99 0 0 0 7.865 3.292c.96 0 1.91-.125 2.834-.369l3.373 3.409 1.385-1.399-2.651-2.682"/></g></svg>