<svg xmlns="http://www.w3.org/2000/svg" width="50" height="50" xml:space="preserve"><g fill="#FFF"><path d="M38.5 25.053c-6.342 0-11.5 5.147-11.5 11.474S32.158 48 38.5 48 50 42.853 50 36.526s-5.158-11.473-11.5-11.473zm0 21.043c-5.291 0-9.596-4.293-9.596-9.569s4.305-9.569 9.596-9.569 9.596 4.293 9.596 9.569-4.305 9.569-9.596 9.569z"/><path d="M41.749 32.83c-.33-.471-.793-.795-1.387-.977a2.688 2.688 0 0 0-.902-.148h-3.984v4.389h-.867v1.396h.867v.902h-.867v1.175h.867v1.78h1.484v-1.78h2.512v-1.175H36.96v-.902h2.5c.461 0 .898-.103 1.311-.309a2.75 2.75 0 0 0 1.003-.828c.198-.247.351-.523.458-.828s.16-.614.16-.928a2.96 2.96 0 0 0-.179-.934 2.949 2.949 0 0 0-.464-.833zm-1.188 2.683c-.14.181-.312.323-.514.427a1.309 1.309 0 0 1-.6.154H36.96v-2.979h2.487c.181 0 .369.045.563.136.194.091.356.21.489.358.247.28.371.626.371 1.037 0 .306-.103.594-.309.867z"/></g><path fill-rule="evenodd" clip-rule="evenodd" fill="#FFF" d="M18.332 0H0v22h18.338l-.006-22zM1.833 20.167V1.833H16.5l.004 18.333H1.833z"/><path fill-rule="evenodd" clip-rule="evenodd" fill="#FFF" d="M9.379 4.824H4.638c-.898 0-1.629.77-1.629 1.715v1.906c0 .945.731 1.715 1.629 1.715h4.741c.898 0 1.629-.77 1.629-1.715V6.539c.001-.946-.73-1.715-1.629-1.715zm.741 3.621c0 .456-.333.826-.741.826H4.638c-.408 0-.741-.371-.741-.826V6.539c0-.456.333-.827.741-.827h4.741c.408 0 .741.371.741.827v1.906zM6 12h2v2H6zM9 12h2v2H9zM0 23h3.001v1.01H0zM15.337 23h3.001v1.01h-3.001z"/><g fill="#FFF"><path d="M25 2c12.665 0 22.971 10.29 22.999 22.948.698.572 1.34 1.211 1.926 1.898.045-.61.075-1.224.075-1.846C50 11.215 38.785 0 25 0c-1.074 0-2.13.076-3.168.21v2.015A23.004 23.004 0 0 1 25 2zM28.572 47.721A23.12 23.12 0 0 1 25 48C13.167 48 3.401 39.015 2.146 27.51H.136C1.399 40.12 12.063 50 25 50c1.98 0 3.904-.238 5.753-.676a15.127 15.127 0 0 1-2.181-1.603z"/></g></svg>