<?xml version="1.0" encoding="utf-8"?>
<!-- Generator: Adobe Illustrator 16.2.0, SVG Export Plug-In . SVG Version: 6.00 Build 0)  -->
<!DOCTYPE svg PUBLIC "-//W3C//DTD SVG 1.1//EN" "http://www.w3.org/Graphics/SVG/1.1/DTD/svg11.dtd">
<svg version="1.1" id="Layer_1" xmlns="http://www.w3.org/2000/svg" xmlns:xlink="http://www.w3.org/1999/xlink" x="0px" y="0px"
	 width="29px" height="57px" viewBox="0 0 29 57" enable-background="new 0 0 29 57" xml:space="preserve">
<g>
	<path fill="#FFFFFF" d="M14.5,57c-5.238,0-9.499-4.262-9.499-9.5c0-3.29,1.699-6.325,4.473-8.055V21h10.053v18.445
		c2.773,1.729,4.473,4.765,4.473,8.055C23.999,52.738,19.738,57,14.5,57z M11.369,22.895v17.657l-0.495,0.271
		c-2.454,1.334-3.979,3.893-3.979,6.678c0,4.193,3.411,7.604,7.605,7.604c4.193,0,7.604-3.411,7.604-7.604
		c0-2.785-1.524-5.344-3.979-6.678l-0.494-0.271V22.895H11.369z"/>
</g>
<g>
	<path fill="#FFFFFF" d="M14.5,15.193c-1.93,0-3.5-1.57-3.5-3.5c0-1.93,1.57-3.5,3.5-3.5c1.93,0,3.5,1.57,3.5,3.5
		C18,13.623,16.43,15.193,14.5,15.193z M14.5,9.749c-1.072,0-1.944,0.872-1.944,1.944c0,1.073,0.872,1.945,1.944,1.945
		s1.944-0.872,1.944-1.945C16.444,10.621,15.572,9.749,14.5,9.749z"/>
	<path fill="#FFFFFF" d="M24.322,22.387H4.677C2.099,22.387,0,20.289,0,17.709V4.677C0,2.098,2.099,0,4.677,0h19.645
		C26.901,0,29,2.098,29,4.677v13.033C29,20.289,26.901,22.387,24.322,22.387z M4.677,1.871c-1.547,0-2.806,1.259-2.806,2.806v13.033
		c0,1.547,1.259,2.807,2.806,2.807h19.645c1.548,0,2.807-1.259,2.807-2.807V4.677c0-1.547-1.259-2.806-2.807-2.806H4.677z"/>
	<path fill-rule="evenodd" clip-rule="evenodd" fill="#FFFFFF" d="M1,5.193h27v2H1V5.193z"/>
</g>
<path fill="#FFFFFF" d="M14.5,53c-2.481,0-4.5-2.019-4.5-4.5s2.019-4.5,4.5-4.5s4.5,2.019,4.5,4.5S16.981,53,14.5,53z M14.5,45.636
	c-1.579,0-2.864,1.285-2.864,2.864s1.285,2.863,2.864,2.863s2.864-1.284,2.864-2.863S16.079,45.636,14.5,45.636z"/>
</svg>
