<svg xmlns="http://www.w3.org/2000/svg" width="325" height="66" xml:space="preserve"><path fill-rule="evenodd" clip-rule="evenodd" fill="#006DA4" d="M89.98 47.449c.379-.188.696-.516.936-.982.242-.469.367-1.059.367-1.756 0-1.588-.417-2.668-1.251-3.229-.554-.373-1.45-.562-2.676-.562H75.951v13.415H87.82c1.412 0 2.428-.279 3.024-.832.6-.557.903-1.518.903-2.885 0-1.557-.589-2.618-1.767-3.169zm-2.472 3.369c-.206.18-.485.273-.831.273h-6.8V48.97h6.8c.388 0 .682.073.866.226.185.148.276.441.276.883.001.308-.105.562-.311.739zm.062-5.056c-.164.135-.412.205-.73.205h-6.962v-1.799h6.962c.305 0 .552.074.721.213.171.145.259.371.259.684 0 .328-.085.562-.25.697zM116.237 40.921h6.693l6.356 13.415H124.7l-4.802-10.414h-.624l-4.785 10.414H109.9l6.337-13.415zM109.033 41.764c-.807-.686-3.243-1.035-7.3-1.035-4.07 0-6.511.355-7.317 1.053-.735.639-1.107 2.59-1.107 5.859 0 2.377.12 3.932.358 4.671.307.96 1.047 1.593 2.21 1.875.928.227 2.881.34 5.856.34 4.057 0 6.499-.354 7.319-1.05.747-.639 1.123-2.586 1.123-5.836.001-3.27-.382-5.228-1.142-5.877zm-3.354 8.855c-.38.288-1.696.434-3.945.434-2.25 0-3.561-.137-3.937-.424-.375-.279-.563-1.277-.563-2.988 0-1.717.193-2.721.572-3.004.38-.286 1.694-.433 3.944-.433s3.562.146 3.936.433c.376.285.564 1.287.564 3.004 0 1.697-.193 2.696-.571 2.978zM130.169 40.921h12.761v3.47h-8.836v9.945h-3.925V40.921zM153.862 40.921h-6.694l-6.335 13.415h4.585l1.214-2.232h7.781l1.215 2.232h4.586l-6.352-13.415zm-5.765 7.712 2.106-4.711h.624l2.106 4.711h-4.836zM161.002 40.921h9.604c2.094 0 3.479.269 4.155.805.847.675 1.269 2.098 1.269 4.261 0 2.164-.417 3.578-1.249 4.241-.692.552-2.086.825-4.175.825h-5.676v-3.472h5.676c.476 0 .83-.108 1.068-.319.287-.247.428-.678.428-1.275 0-.602-.13-1.018-.391-1.247-.262-.233-.633-.349-1.105-.349h-5.679v9.945h-3.925V40.921zM177.922 54.336V40.921h13.741v3.247h-9.817v1.854h9.371v3.229h-9.371v1.84h9.817v3.244h-13.741zM194.842 40.921h7.052l3.354 7.544.304 1.613.302-1.613 3.357-7.544h6.694v13.415h-3.929v-9.398l.073-1.185-.161.188-.195.434-4.534 9.961h-3.215l-4.888-9.965-.163-.374-.196-.244.071 1.183v9.4h-3.927V40.921zM226.072 40.729c3.64 0 5.881.326 6.723.959.739.553 1.11 2.016 1.11 4.395h-3.927c0-.779-.204-1.271-.604-1.482-.492-.262-1.593-.396-3.302-.396-1.905 0-3.029.155-3.368.462-.335.303-.507 1.292-.507 2.975 0 1.686.16 2.676.492 2.971.325.293 1.451.441 3.383.441 1.734 0 2.821-.107 3.256-.33.431-.215.65-.734.65-1.546h3.927c0 2.39-.357 3.853-1.073 4.392-.842.639-3.097.958-6.76.958-3.668 0-5.884-.349-6.652-1.05-.769-.703-1.151-2.656-1.151-5.859 0-3.189.367-5.123 1.107-5.797.796-.727 3.028-1.093 6.696-1.093zM236.939 54.336V40.921h13.744v3.247h-9.816v1.854h9.367v3.229h-9.367v1.84h9.816v3.244h-13.744zM289.34 40.921h3.927v9.251l-.035 1.109.195-.434 6.713-9.927h6.425v13.415h-3.927v-9.252l.091-1.15-.232.477-6.729 9.926h-6.427V40.921zM317.158 40.729c3.642 0 5.885.326 6.729.959.735.553 1.105 2.016 1.105 4.395h-3.927c0-.779-.199-1.271-.604-1.482-.487-.262-1.588-.396-3.304-.396-1.904 0-3.025.155-3.361.462-.343.303-.512 1.292-.512 2.975 0 1.686.166 2.676.491 2.971.326.293 1.456.441 3.382.441 1.738 0 2.823-.107 3.256-.33.436-.215.652-.734.652-1.546h3.927c0 2.39-.354 3.853-1.069 4.392-.845.639-3.103.958-6.766.958-3.664 0-5.882-.349-6.646-1.05-.766-.703-1.15-2.656-1.15-5.859 0-3.189.367-5.123 1.105-5.797.797-.727 3.028-1.093 6.692-1.093zM284.517 47.449c.379-.188.696-.516.937-.982.241-.469.367-1.059.367-1.756 0-1.588-.419-2.668-1.25-3.229-.556-.373-1.451-.562-2.679-.562h-11.405v13.415h11.87c1.412 0 2.427-.279 3.024-.832.6-.557.901-1.518.901-2.885 0-1.557-.588-2.618-1.765-3.169zm-2.474 3.369c-.205.18-.484.273-.83.273h-6.799V48.97h6.799c.39 0 .683.073.867.226.184.148.276.441.276.883 0 .308-.106.562-.313.739zm.064-5.056c-.165.135-.412.205-.731.205h-6.962v-1.799h6.962c.304 0 .553.074.721.213.172.145.26.371.26.684-.001.328-.086.562-.25.697zM253.607 40.921h9.604c2.094 0 3.479.269 4.155.805.847.675 1.269 2.098 1.269 4.261 0 2.164-.417 3.578-1.248 4.241-.693.552-2.087.825-4.176.825h-5.676v-3.472h5.676c.476 0 .83-.108 1.068-.319.288-.247.428-.678.428-1.275 0-.602-.129-1.018-.391-1.247-.262-.233-.633-.349-1.105-.349h-5.678v9.945h-3.926V40.921zM42.009 5.305c1.383-.962 3.15-.285 3.174 2.714.029 3.976 1.419 7.786 4.095 9.39.51-1.925 1.103-3.811 2.019-5.552 1.81-3.431 2.823-3.29 5.322-2.563 3.202.918 6.404 2.527 9.369 4.405l.024.015c1.349.831 1.573 2.693-.8 4.158-3.369 2.084-6.129 5.34-5.93 8.716 1.936-.515 3.883-.941 5.866-.96 3.737-.032 4.115.96 4.749 3.606a38.56 38.56 0 0 1 1.038 10.487c-.028 1.627-1.444 2.736-3.822 1.319-3.402-2.03-7.398-2.712-10.072-.867 1.365 1.482 2.659 3.017 3.65 4.783 1.893 3.385 1.263 4.228-.6 6.128-2.252 2.299-5.476 4.673-7.994 6.02a2.279 2.279 0 0 1-.438.23l-.007.004c-1.275.495-2.65-.346-2.671-2.988-.027-3.779-.963-8.558-4.061-10.063-.557 2.188-1.18 4.346-2.216 6.312-1.808 3.437-2.822 3.29-5.323 2.571-3.209-.927-6.146-2.641-9.126-4.453v-.004c-1.437-.8-1.73-2.715.696-4.212 2.673-1.654 6.284-4.69 6.272-8.304a4.57 4.57 0 0 0-.021-.454c-2.096.572-4.199 1.069-6.353 1.09-3.734.034-4.112-.962-4.746-3.607-.815-3.394-.911-6.944-.874-10.564.023-1.628 1.44-2.752 3.823-1.332 2.886 1.724 7.457 3.551 10.323 1.408-1.515-1.624-2.976-3.288-4.064-5.233-1.894-3.385-1.264-4.229.595-6.124 2.31-2.361 4.991-4.222 8.103-6.076zM.006 28.042h18.688V26.82H.006v1.222zM47.134.004c14.978 0 27.365 11.659 29.403 26.816h168.389v1.222H75.552C74.036 12.951 61.891 1.185 47.134 1.185h-.052V.007l.052-.003zm28.428 35.547h249.283v-1.228H75.562v1.228zm-28.48 26.908c-14.985-.023-27.365-11.721-29.361-26.908h-7.284v-1.228h8.27c1.469 15.128 13.608 26.933 28.375 26.962v1.174zm.001-41.188c4.164 0 7.697 2.836 8.947 6.772h-1.19c-1.203-3.271-4.222-5.591-7.757-5.591-3.536 0-6.556 2.32-7.756 5.591h-1.193c1.254-3.937 4.786-6.772 8.949-6.772zm8.953 13.052c-1.249 3.944-4.786 6.786-8.953 6.786s-7.704-2.842-8.952-6.786h1.19c1.199 3.276 4.221 5.61 7.762 5.61 3.539 0 6.562-2.334 7.761-5.61h1.192zM41.293 8.15c-.56 3.206.271 8.943-1.493 12.814l-.033.068-.049.1c-2.309 4.701-7.696 4.174-13.081.967-2.926-1.746-3.304 1.154-1.421 2.838 1.862 1.669 5.458 3.334 8.023 5.705l.032.031c.327.303.636.617.923.947 3.937 4.566 1.31 9.852-4.818 13.639-2.897 1.793-.699 3.586 1.63 2.715 2.621-.983 6.363-4.005 10.043-4.846 5.698-1.258 8.717 3.77 8.771 11.215.029 3.538 2.605 2.432 3.054-.125.393-2.256.096-5.773.503-9.004 1.306-7.174 7.521-8.896 14.149-4.945 2.927 1.745 3.303-1.156 1.42-2.842-1.737-1.554-4.975-3.104-7.483-5.229-5.247-4.77-3.24-11.029 3.325-15.09 2.897-1.792.698-3.584-1.63-2.713-2.025.758-4.715 2.733-7.53 3.982-6.563 2.398-11.225-2.339-11.288-10.35-.025-3.539-2.602-2.434-3.047.123zM181.629 59.783c0 .105-.005.191-.014.262a.989.989 0 0 1-.035.172c-.016.033-.039.077-.062.088a.128.128 0 0 1-.083.031h-2.098v5.359a.163.163 0 0 1-.034.092c-.014.022-.058.047-.104.064a.892.892 0 0 1-.194.037 3.297 3.297 0 0 1-.311.012c-.124 0-.227-.004-.312-.012a.888.888 0 0 1-.196-.037.243.243 0 0 1-.105-.064.158.158 0 0 1-.035-.092v-6.044c0-.144.039-.253.104-.321a.384.384 0 0 1 .28-.105h3.004c.062 0 .113.043.145.129.031.085.05.231.05.429zm9.324 1.459c0 .373-.057.705-.168.993-.11.29-.277.531-.483.725-.208.198-.476.35-.778.452a3.42 3.42 0 0 1-1.084.154h-.529v2.119a.225.225 0 0 1-.031.09.21.21 0 0 1-.105.068.909.909 0 0 1-.199.045c-.08.008-.186.012-.312.012s-.232-.004-.313-.012a.815.815 0 0 1-.196-.045c-.047-.016-.086-.039-.1-.068a.142.142 0 0 1-.033-.09v-5.979c0-.158.04-.283.12-.361a.417.417 0 0 1 .315-.121h1.49c.15 0 .297.006.428.016.133.014.301.044.486.078.186.04.381.119.575.221.192.105.36.244.494.4.133.163.245.357.312.572.073.216.111.462.111.731zm-1.345.1c0-.235-.039-.425-.114-.572a.892.892 0 0 0-.292-.339.888.888 0 0 0-.358-.134 3.544 3.544 0 0 0-.389-.027h-.545v2.256h.573c.206 0 .378-.033.514-.088a.938.938 0 0 0 .343-.248c.086-.102.154-.228.197-.371.044-.146.071-.305.071-.477zm9.538 2.698a7.562 7.562 0 0 1-.424.947 2.404 2.404 0 0 1-.439.593 1.438 1.438 0 0 1-.523.305 2.293 2.293 0 0 1-.641.085c-.086 0-.174-.011-.256-.019-.085-.013-.17-.034-.241-.051-.073-.016-.144-.049-.196-.072a.534.534 0 0 1-.124-.078.236.236 0 0 1-.059-.081.457.457 0 0 1-.037-.112 3.066 3.066 0 0 1-.022-.182 4.984 4.984 0 0 1-.008-.271c0-.201.016-.346.045-.425.022-.081.07-.129.129-.129.03 0 .063.015.097.035a1.634 1.634 0 0 0 .304.157.994.994 0 0 0 .43.007.484.484 0 0 0 .163-.092.824.824 0 0 0 .158-.186c.05-.079.104-.188.164-.315l-2.079-4.456a.976.976 0 0 1-.083-.26c-.003-.063.011-.118.047-.152a.332.332 0 0 1 .199-.074 4.582 4.582 0 0 1 .74-.01c.09.008.169.022.221.044a.266.266 0 0 1 .125.097c.029.041.059.106.091.166l.886 2.014c.094.215.194.437.279.646.083.211.174.428.255.65h.012c.068-.23.137-.459.209-.674.073-.215.155-.441.243-.686l.725-2.045a.425.425 0 0 1 .064-.113.255.255 0 0 1 .119-.07.954.954 0 0 1 .213-.033c.09-.002.217-.006.355-.006.152 0 .271.006.358.016a.38.38 0 0 1 .188.057.122.122 0 0 1 .055.119c0 .051-.02.125-.049.205l-1.693 4.449zm11.644 1.655a.16.16 0 0 1-.028.092.241.241 0 0 1-.104.064.866.866 0 0 1-.196.037 3.289 3.289 0 0 1-.31.012c-.124 0-.229-.004-.313-.012a.889.889 0 0 1-.196-.037.244.244 0 0 1-.104-.064.14.14 0 0 1-.03-.092v-5.344h-2.355v5.344a.176.176 0 0 1-.032.092.261.261 0 0 1-.104.064.936.936 0 0 1-.197.037c-.077.008-.186.012-.31.012s-.23-.004-.313-.012a.898.898 0 0 1-.198-.037.25.25 0 0 1-.101-.064.153.153 0 0 1-.032-.092v-6.044c0-.144.039-.253.108-.321a.36.36 0 0 1 .272-.105h4.178a.37.37 0 0 1 .271.105c.064.068.095.182.095.321v6.044zm10.55 0a.208.208 0 0 1-.026.092.263.263 0 0 1-.106.064.863.863 0 0 1-.199.037c-.08.008-.184.012-.309.012-.124 0-.229-.004-.307-.012a.842.842 0 0 1-.199-.037.251.251 0 0 1-.104-.064.138.138 0 0 1-.034-.092v-5.344h-2.354v5.344c0 .029-.01.064-.029.092a.274.274 0 0 1-.105.064.936.936 0 0 1-.197.037 3.3 3.3 0 0 1-.313.012c-.122 0-.227-.004-.307-.012a.885.885 0 0 1-.2-.037.304.304 0 0 1-.103-.064.16.16 0 0 1-.032-.092v-6.044a.46.46 0 0 1 .105-.321.37.37 0 0 1 .273-.105h4.176c.118 0 .207.037.277.105.063.068.094.182.094.321v6.044zm10.803-.328c.037.117.064.223.074.295.009.07-.005.125-.041.158-.036.04-.098.062-.189.068a4.466 4.466 0 0 1-.372.012c-.171 0-.302-.004-.392-.004a2.22 2.22 0 0 1-.213-.029.229.229 0 0 1-.105-.066.932.932 0 0 1-.044-.109l-.427-1.337h-2.375l-.398 1.3a.506.506 0 0 1-.052.121.199.199 0 0 1-.102.076.708.708 0 0 1-.202.043c-.08.002-.199.006-.336.006a4.02 4.02 0 0 1-.355-.012c-.081-.008-.143-.037-.174-.077-.031-.038-.043-.099-.038-.17.012-.066.036-.165.073-.282l1.954-5.898a.602.602 0 0 1 .064-.143.297.297 0 0 1 .126-.082 1.05 1.05 0 0 1 .238-.035 13.82 13.82 0 0 1 .859 0c.113.004.205.02.265.035a.29.29 0 0 1 .14.087.787.787 0 0 1 .071.155l1.951 5.888zm-2.902-4.871h-.005l-.893 2.822h1.789l-.891-2.822zm18.168 5.195a.203.203 0 0 1-.027.096.259.259 0 0 1-.105.064.98.98 0 0 1-.201.037 3.664 3.664 0 0 1-.327.012c-.143 0-.259-.004-.342-.012a.908.908 0 0 1-.208-.039c-.052-.021-.094-.045-.114-.076a.538.538 0 0 1-.059-.123l-.508-1.482a3.7 3.7 0 0 0-.228-.538 1.316 1.316 0 0 0-.257-.355.738.738 0 0 0-.323-.192 1.307 1.307 0 0 0-.409-.054h-.283v2.657c0 .035-.012.07-.027.098a.367.367 0 0 1-.107.066.722.722 0 0 1-.192.039 3.374 3.374 0 0 1-.313.012c-.12 0-.228-.004-.308-.012a.83.83 0 0 1-.2-.039.328.328 0 0 1-.105-.066.159.159 0 0 1-.033-.098v-6.278c0-.04.013-.071.033-.097.018-.026.06-.049.105-.064a.723.723 0 0 1 .2-.035c.08-.012.188-.016.308-.016.126 0 .23.004.313.016.08.006.146.017.192.035a.227.227 0 0 1 .107.064.182.182 0 0 1 .027.097v2.495h.283c.149 0 .275-.021.39-.063a.917.917 0 0 0 .302-.196c.087-.087.172-.202.245-.347.069-.141.143-.313.212-.525l.422-1.327c.019-.046.034-.086.062-.121a.234.234 0 0 1 .108-.074.656.656 0 0 1 .199-.038c.08-.012.198-.016.337-.016.124 0 .235.004.313.016.082.006.151.017.194.029.049.02.08.04.096.064a.17.17 0 0 1 .028.094c0 .046-.012.1-.024.166a1.996 1.996 0 0 1-.074.256l-.428 1.181c-.078.22-.157.409-.232.565a2.103 2.103 0 0 1-.248.387 1.277 1.277 0 0 1-.271.262c-.099.07-.204.127-.317.176v.003c.125.059.246.128.351.198.104.074.202.168.296.279.095.115.182.256.265.416.086.164.172.368.26.607l.519 1.373c.053.143.082.241.093.295.005.048.01.094.01.128zm10.634-3.221c0 .556-.063 1.046-.191 1.479a3.09 3.09 0 0 1-.584 1.108 2.511 2.511 0 0 1-.957.692 3.412 3.412 0 0 1-1.315.242c-.489 0-.92-.072-1.286-.205a2.251 2.251 0 0 1-.914-.619c-.245-.277-.43-.632-.551-1.062-.123-.427-.183-.931-.183-1.518 0-.54.066-1.022.196-1.447.129-.435.325-.8.579-1.1.259-.3.577-.534.958-.694.376-.16.816-.237 1.316-.237.482 0 .904.063 1.269.197.366.132.676.337.917.613.248.282.436.633.559 1.06.123.419.187.917.187 1.491zm-1.348.074c0-.349-.027-.671-.075-.955a2.011 2.011 0 0 0-.269-.731 1.288 1.288 0 0 0-.5-.472c-.208-.11-.467-.169-.783-.169-.312 0-.579.066-.787.19a1.434 1.434 0 0 0-.516.499 2.202 2.202 0 0 0-.273.73c-.056.277-.08.574-.08.889 0 .357.024.689.076.979.051.287.141.536.262.735.125.204.293.367.497.471.209.11.474.166.787.166.315 0 .583-.066.792-.187.213-.125.384-.293.517-.502.125-.212.218-.463.275-.742.05-.283.077-.585.077-.901zm14.042 3.142a.186.186 0 0 1-.024.09.19.19 0 0 1-.098.068 1.086 1.086 0 0 1-.188.045c-.08.008-.18.012-.301.012-.113 0-.217-.004-.294-.012a.911.911 0 0 1-.181-.045.224.224 0 0 1-.103-.068.148.148 0 0 1-.024-.09v-5.402h-.013l-1.828 5.398c-.017.041-.034.082-.065.11s-.073.052-.123.068a.676.676 0 0 1-.191.036c-.073 0-.171.004-.279.004a2.78 2.78 0 0 1-.284-.012.714.714 0 0 1-.192-.039.357.357 0 0 1-.121-.074.223.223 0 0 1-.06-.094l-1.769-5.398h-.007v5.402a.152.152 0 0 1-.032.09c-.014.029-.048.051-.1.068a.956.956 0 0 1-.186.045 2.944 2.944 0 0 1-.296.012c-.119 0-.213-.004-.293-.012a.994.994 0 0 1-.186-.045c-.048-.018-.085-.039-.099-.068a.133.133 0 0 1-.028-.09v-5.92c0-.174.042-.31.131-.402a.463.463 0 0 1 .355-.139h.839c.147 0 .277.012.386.037.105.029.2.072.276.129a.858.858 0 0 1 .197.236c.051.095.087.221.137.363l1.367 3.959h.018l1.416-3.947c.051-.145.092-.27.141-.365a.823.823 0 0 1 .172-.24.671.671 0 0 1 .238-.135c.093-.025.201-.037.319-.037h.862c.088 0 .169.012.229.037a.376.376 0 0 1 .157.105.513.513 0 0 1 .09.169.708.708 0 0 1 .032.229v5.922zm10.552.009a.15.15 0 0 1-.029.092.261.261 0 0 1-.104.064.853.853 0 0 1-.199.037c-.08.008-.186.012-.308.012-.127 0-.226-.004-.314-.012a.816.816 0 0 1-.19-.037c-.05-.018-.092-.04-.107-.064a.14.14 0 0 1-.031-.092v-5.344h-2.354v5.344a.193.193 0 0 1-.03.092.288.288 0 0 1-.108.064.89.89 0 0 1-.195.037 3.344 3.344 0 0 1-.313.012 3.37 3.37 0 0 1-.309-.012.877.877 0 0 1-.196-.037.224.224 0 0 1-.102-.064.144.144 0 0 1-.033-.092v-6.044c0-.144.035-.253.104-.321s.157-.105.271-.105h4.18a.35.35 0 0 1 .269.105c.068.068.101.178.101.321v6.044zm10.804-.328c.039.121.063.223.075.295.006.07-.006.125-.042.158-.033.04-.098.062-.19.068-.09.008-.215.012-.376.012-.163 0-.298-.004-.39-.004a1.284 1.284 0 0 1-.21-.029.26.26 0 0 1-.105-.066c-.021-.027-.032-.064-.047-.109l-.425-1.337h-2.375l-.4 1.3a.61.61 0 0 1-.049.121.216.216 0 0 1-.103.076.735.735 0 0 1-.201.043c-.086.002-.199.006-.339.006-.15 0-.266-.004-.354-.012-.085-.012-.142-.037-.172-.077-.034-.038-.046-.095-.036-.17.01-.069.036-.165.072-.282l1.951-5.898a.595.595 0 0 1 .068-.143.235.235 0 0 1 .122-.082.954.954 0 0 1 .237-.035 13.568 13.568 0 0 1 .859 0c.117.004.205.018.266.035.064.018.11.053.138.087a.55.55 0 0 1 .071.155l1.955 5.888zm-2.902-4.871h-.003l-.896 2.822h1.795l-.896-2.822zm12.967 5.19a.146.146 0 0 1-.028.09.234.234 0 0 1-.105.068 1.108 1.108 0 0 1-.199.045 3.19 3.19 0 0 1-.307.012c-.126 0-.232-.004-.313-.012a1.101 1.101 0 0 1-.197-.045.264.264 0 0 1-.1-.068.138.138 0 0 1-.035-.09v-2.684h-2.359v2.684a.143.143 0 0 1-.032.09.201.201 0 0 1-.104.068.997.997 0 0 1-.195.045 3.23 3.23 0 0 1-.31.012c-.122 0-.226-.004-.312-.012a1.188 1.188 0 0 1-.2-.045.28.28 0 0 1-.104-.068.14.14 0 0 1-.03-.09v-6.273a.16.16 0 0 1 .03-.094.32.32 0 0 1 .104-.069c.05-.015.119-.03.2-.038.086-.012.189-.016.312-.016.127 0 .229.004.31.016a.93.93 0 0 1 .195.038.22.22 0 0 1 .104.069c.021.024.032.06.032.094v2.438h2.359v-2.438c0-.034.014-.069.035-.094a.281.281 0 0 1 .1-.069c.049-.015.115-.03.197-.038.081-.012.188-.016.313-.016a1.91 1.91 0 0 1 .506.054.266.266 0 0 1 .105.069.15.15 0 0 1 .028.094v6.273zm10.771.009a.141.141 0 0 1-.03.092.285.285 0 0 1-.104.064 1 1 0 0 1-.199.037 3.35 3.35 0 0 1-.312.012 3.28 3.28 0 0 1-.309-.012.95.95 0 0 1-.197-.037.275.275 0 0 1-.101-.064.151.151 0 0 1-.027-.092v-3.5l.001-.396c.004-.126.013-.24.018-.342h-.01c-.027.049-.055.109-.092.169a8.262 8.262 0 0 0-.113.202c-.044.072-.084.141-.131.212-.049.075-.091.147-.138.213l-2.198 3.446a.551.551 0 0 1-.081.102.31.31 0 0 1-.104.066.974.974 0 0 1-.165.029c-.062 0-.145.004-.243.004-.129 0-.229-.004-.309-.012a.797.797 0 0 1-.184-.037c-.044-.018-.074-.04-.089-.068a.193.193 0 0 1-.026-.098v-6.287c0-.031.016-.063.033-.088a.217.217 0 0 1 .105-.064.76.76 0 0 1 .201-.035c.08-.012.182-.016.305-.016.128 0 .233.004.313.016.08.006.144.017.196.035.044.016.08.038.102.064.02.025.031.057.031.088v3.523c0 .113-.002.227-.006.353-.003.119-.01.241-.014.358h.008c.058-.104.129-.226.211-.369s.172-.284.264-.424l2.196-3.443a.493.493 0 0 1 .073-.092.313.313 0 0 1 .105-.064.758.758 0 0 1 .162-.035 2.2 2.2 0 0 1 .25-.01c.123 0 .225.004.301.016a.645.645 0 0 1 .184.035.204.204 0 0 1 .095.064c.021.025.027.057.027.097v6.288zm10.767 0a.138.138 0 0 1-.03.092.252.252 0 0 1-.105.064.922.922 0 0 1-.198.037 3.274 3.274 0 0 1-.31.012c-.121 0-.229-.004-.31-.012a.867.867 0 0 1-.194-.037.234.234 0 0 1-.103-.064.152.152 0 0 1-.028-.092v-3.5c0-.135 0-.264.003-.396.005-.126.007-.24.016-.342h-.009a3.492 3.492 0 0 1-.092.169c-.038.062-.075.132-.114.202-.04.072-.082.141-.128.212-.049.075-.092.147-.14.213l-2.199 3.446a.535.535 0 0 1-.077.102.366.366 0 0 1-.108.066c-.042.014-.099.021-.161.029-.063 0-.146.004-.248.004-.126 0-.225-.004-.306-.012s-.14-.021-.186-.037a.232.232 0 0 1-.091-.068.215.215 0 0 1-.022-.098v-6.287c0-.031.012-.063.03-.088a.24.24 0 0 1 .111-.064.719.719 0 0 1 .195-.035c.082-.014.184-.016.308-.016.126 0 .229.002.312.016a.727.727 0 0 1 .195.035.217.217 0 0 1 .103.064.137.137 0 0 1 .031.088v3.523c0 .113 0 .227-.006.353 0 .119-.007.241-.014.358h.009c.055-.104.129-.226.209-.369.087-.148.174-.284.266-.424l2.193-3.443c.024-.036.051-.066.074-.092a.383.383 0 0 1 .107-.064.808.808 0 0 1 .164-.035c.063-.008.149-.01.248-.01.125 0 .227.002.3.016a.637.637 0 0 1 .183.035c.049.016.08.038.096.064a.155.155 0 0 1 .026.097v6.288zm-.744-8.25c0 .186-.032.366-.095.535a1.139 1.139 0 0 1-.302.463 1.453 1.453 0 0 1-.547.311c-.222.083-.5.124-.831.124-.32 0-.589-.038-.816-.108a1.467 1.467 0 0 1-.551-.299 1.082 1.082 0 0 1-.31-.449 1.735 1.735 0 0 1-.094-.576.27.27 0 0 1 .025-.129c.016-.033.05-.057.091-.078.043-.023.102-.033.174-.047.072-.006.164-.008.277-.008.101 0 .186.002.256.016a.467.467 0 0 1 .157.041.2.2 0 0 1 .075.085.23.23 0 0 1 .022.112c0 .085.013.162.042.23a.66.66 0 0 0 .137.188.751.751 0 0 0 .522.182.764.764 0 0 0 .498-.176.563.563 0 0 0 .183-.431c0-.045.003-.078.017-.113a.283.283 0 0 1 .078-.076.462.462 0 0 1 .152-.041 1.19 1.19 0 0 1 .241-.016c.119 0 .214.002.292.008.074.014.135.023.186.047a.206.206 0 0 1 .094.078.333.333 0 0 1 .027.127z"/></svg>