<svg xmlns="http://www.w3.org/2000/svg" width="20" height="21" xml:space="preserve"><path fill="#FF2A33" d="m13.099 14.448-5.185-3.023c-.173.7-.53 1.326-1.026 1.814l5.195 3.027a3.812 3.812 0 0 1 1.016-1.818zM13.098 6.551a3.833 3.833 0 0 1-1.017-1.819L6.887 7.761a3.82 3.82 0 0 1 1.026 1.813l5.185-3.023z"/><path fill="#19689D" d="M7.913 9.574a3.82 3.82 0 0 0-1.026-1.813 3.732 3.732 0 0 0-2.624-1.085C2.181 6.676.488 8.392.488 10.5s1.693 3.824 3.775 3.824a3.734 3.734 0 0 0 2.625-1.085 3.82 3.82 0 0 0 1.026-1.814c.074-.298.125-.604.125-.925a3.873 3.873 0 0 0-.126-.926zm-3.65 2.852c-1.049 0-1.902-.865-1.902-1.926 0-1.063.854-1.927 1.902-1.927s1.902.864 1.902 1.927c0 1.061-.854 1.926-1.902 1.926zM15.736 7.648c2.082 0 3.776-1.716 3.776-3.824S17.818 0 15.736 0c-2.081 0-3.774 1.716-3.774 3.824 0 .313.048.615.119.907.17.701.523 1.329 1.017 1.819a3.728 3.728 0 0 0 2.638 1.098zm0-5.751c1.049 0 1.902.864 1.902 1.927 0 1.062-.854 1.926-1.902 1.926s-1.901-.864-1.901-1.926c0-1.062.853-1.927 1.901-1.927zM15.736 13.352c-1.026 0-1.957.42-2.638 1.097a3.825 3.825 0 0 0-1.017 1.818c-.071.293-.12.595-.12.909 0 2.108 1.693 3.824 3.774 3.824 2.082 0 3.776-1.716 3.776-3.824s-1.693-3.824-3.775-3.824zm0 5.75c-1.048 0-1.901-.865-1.901-1.926 0-1.063.854-1.927 1.901-1.927 1.049 0 1.902.864 1.902 1.927.001 1.06-.853 1.926-1.902 1.926z"/></svg>